<?xml version="1.0" standalone="no"?>
<!DOCTYPE svg PUBLIC "-//W3C//DTD SVG 20010904//EN"
 "http://www.w3.org/TR/2001/REC-SVG-20010904/DTD/svg10.dtd">
<svg version="1.0" xmlns="http://www.w3.org/2000/svg"
 width="398.000000pt" height="398.000000pt" viewBox="0 0 398.000000 398.000000"
 preserveAspectRatio="xMidYMid meet">
<metadata>
Created by potrace 1.11, written by Peter Selinger 2001-2013
</metadata>
<g transform="translate(0.000000,398.000000) scale(0.100000,-0.100000)"
fill="#000000" stroke="none">
<path d="M1379 3463 c-75 -15 -168 -59 -223 -104 -41 -34 -78 -102 -69 -126 3
-8 -8 -29 -25 -46 -39 -41 -52 -76 -52 -140 1 -55 7 -75 63 -202 20 -44 41
-111 47 -149 12 -77 26 -99 98 -156 54 -43 65 -63 91 -168 l17 -70 -33 -16
c-30 -14 -39 -14 -115 4 -46 10 -99 22 -118 25 -126 21 -170 37 -182 63 -7 15
-28 34 -46 44 -18 9 -41 23 -51 32 -24 22 -40 20 -50 -6 -9 -22 -10 -22 -21
10 -24 64 -69 25 -76 -65 -4 -50 -1 -64 16 -86 25 -31 93 -63 153 -72 37 -6
50 -14 59 -37 5 -11 309 -80 373 -85 46 -3 82 3 158 25 74 22 97 26 97 16 0
-20 10 -17 37 12 16 18 29 24 41 19 9 -5 28 -10 42 -12 20 -4 38 -25 81 -101
l56 -97 -35 -6 c-41 -7 -54 -25 -48 -61 5 -25 3 -28 -24 -28 -45 0 -74 -34
-67 -77 7 -44 29 -69 72 -83 l32 -11 -32 -32 c-32 -32 -37 -55 -21 -104 8 -22
50 -54 76 -56 25 -2 16 -13 -17 -22 -54 -13 -169 -73 -228 -118 l-60 -45 -15
29 c-39 74 -124 135 -197 142 -43 4 -124 -17 -162 -41 -64 -42 -99 -111 -106
-215 -9 -148 -61 -204 -145 -157 -38 21 -56 21 -75 0 -15 -17 -17 -26 -8 -55
l11 -34 -43 6 c-73 9 -111 -3 -129 -41 -45 -95 13 -214 133 -275 45 -23 52
-32 21 -26 -39 7 -89 -15 -106 -47 -42 -82 47 -172 179 -180 36 -2 37 -3 37
-43 0 -131 178 -114 272 25 31 47 44 76 66 150 2 8 5 92 6 185 1 190 10 226
57 246 43 17 53 2 54 -83 4 -185 94 -480 171 -564 l25 -26 -35 -33 c-20 -18
-51 -38 -70 -45 -94 -31 -79 -166 18 -163 56 2 170 75 209 135 14 23 21 26 40
19 13 -5 48 -12 78 -16 30 -4 56 -9 58 -11 3 -2 -5 -18 -17 -34 -31 -41 -26
-85 12 -117 23 -19 37 -23 60 -19 49 10 78 45 117 140 9 22 22 40 30 41 8 2
47 5 86 9 40 3 78 8 85 11 7 2 31 7 53 9 114 15 322 64 425 101 172 62 389
185 495 280 28 25 55 45 62 45 17 0 64 -62 77 -101 10 -30 16 -34 51 -37 45
-4 101 21 110 49 15 46 -37 162 -91 206 l-38 30 58 22 c31 11 73 21 92 21 40
0 89 -22 103 -47 9 -17 11 -17 44 0 59 32 78 90 44 134 -52 67 -100 94 -170
94 -28 0 -69 -7 -90 -16 -39 -16 -39 -16 -32 6 11 33 8 180 -4 210 -12 33 -6
41 52 63 134 50 215 180 147 237 -12 11 -47 18 -100 22 -99 6 -123 21 -50 31
102 14 189 62 217 121 12 24 14 47 8 90 -6 48 -13 63 -45 95 -48 48 -98 63
-196 58 -67 -2 -75 0 -101 23 -33 31 -66 41 -97 30 -14 -6 -36 -2 -64 10 l-42
18 21 53 c159 403 175 454 154 488 -10 16 -51 12 -67 -7 -8 -10 -75 -108 -149
-217 -129 -193 -133 -199 -141 -169 -10 40 -54 83 -85 83 -13 0 -34 -11 -46
-24 -21 -23 -24 -23 -52 -8 -43 23 -166 20 -231 -5 -59 -23 -114 -62 -158
-112 l-30 -33 -19 43 c-10 24 -17 52 -16 64 4 51 -3 75 -30 101 -30 31 -56 93
-44 104 5 4 58 44 118 90 178 134 185 142 283 335 19 39 46 87 59 108 15 25
22 45 17 59 -4 14 2 29 24 52 42 44 65 94 65 143 0 36 -5 47 -42 82 -31 30
-51 41 -73 41 -29 0 -30 -1 -23 -37 6 -32 5 -35 -8 -25 -12 10 -18 9 -31 -3
-9 -9 -16 -23 -16 -30 0 -8 -8 -30 -17 -49 -13 -29 -14 -42 -6 -71 6 -19 7
-35 3 -35 -5 0 -28 -35 -51 -77 -24 -43 -57 -100 -74 -128 -17 -27 -39 -67
-48 -87 -22 -47 -156 -133 -193 -124 -39 10 -71 48 -107 128 l-35 77 25 -10
c35 -13 68 -11 111 7 l37 15 -54 22 c-67 27 -87 57 -96 147 -11 100 -24 123
-106 177 -59 39 -75 55 -86 88 -19 56 -34 67 -97 76 -37 5 -75 20 -116 45 -74
45 -133 55 -221 37z"/>
</g>
</svg>
